<svg xmlns="http://www.w3.org/2000/svg" viewBox="0 0 993.04 382.25">
	<defs>
		<style>
			.svg-logo{
			fill: #333;
			}
		</style>
	</defs>
	<title>Joeay Logo</title>
	<g id="DUPE_LOGO_Image" data-name="DUPE LOGO Image">
		<path class="svg-logo" d="M835.71,233.62c-15.42,15.13-31.53,28.3-49.79,38.5a232.3,232.3,0,0,1-27.16,12.41,29.57,29.57,0,0,1-12.23,1.84c-21.17-1.15-30.25-12.66-28.26-35.35.3-3.47.87-6.92,1.47-11.55-1.27,2.24-1.91,3.61-2.76,4.85-5.18,7.51-9.72,15.61-15.77,22.34-10.4,11.58-23.61,16.56-39.24,12.42-15.45-4.09-23.67-15.17-28-29.8-.84-2.84-1.43-5.76-2.19-8.87-7.53,5.4-14.63,10.88-22.11,15.78-18,11.78-37,21.12-58.56,24.36-11.81,1.78-23.58,1.34-35.08-2.33-18.56-5.92-28.9-19.28-33.94-37.45-.36-1.28-.68-2.57-1.07-3.84a4.74,4.74,0,0,0-.72-1c-14.89,8.41-30.39,13.51-47.1,7.17-7.25,7.66-13.86,15.65-21.49,22.51-17.93,16.12-39.15,23.17-63.17,19.61-19.16-2.84-31.73-14.32-38.55-32.28-.41-1.09-.72-2.21-1.1-3.31-.32-.94-.68-1.87-1.17-3.19a32.2,32.2,0,0,0-3.13,2.42,220.81,220.81,0,0,1-54.5,39.32,14.08,14.08,0,0,0-6.81,7.38c-9.3,21.21-20.94,41-38,56.92-29,27.13-64.18,36.17-102.83,33.06-28.59-2.3-53.71-13.28-73-34.91C8.13,326.86-1,299,6.28,267.42,10.75,248,24,236.26,43.39,231.63c13.5-3.23,22.2,1.86,25.47,15.27.89,3.66,3,4.45,5.84,4.83,26.22,3.51,52.43,7.18,78.7,10.28,9.23,1.09,18.63.56,27.94,1.1,3.66.21,4.84-1.35,5.63-4.56a783.77,783.77,0,0,0,18-102.23c2.25-20.34,3.46-40.8,4.79-61.23a88.94,88.94,0,0,0-.87-16.93c-1.12-8.8-6.45-11.9-14-7.39A49.6,49.6,0,0,0,180.9,83.25c-12.54,16.68-18.8,36.28-23.65,56.23-2.67,11-4.08,22.23-5.61,33.43-.45,3.3-1.65,4.89-4.62,6.08-23.33,9.37-43.88-3.1-47.95-29.12-3.28-21,2.06-40.4,10.78-59.05C125.58,57.2,149,30.66,182.94,14.46A110,110,0,0,1,236.84,4C263.18,5.4,280,20.68,285.19,47.53c3.91,20.07,2.56,40.17.55,60.22A778.33,778.33,0,0,1,260.35,242c-.22.77-.32,1.57-.7,3.46,2.22-1.3,3.7-2.1,5.13-3a145.48,145.48,0,0,0,39.12-36.73c1.76-2.38,2.51-5.71,3.05-8.73,5.37-29.78,17.25-56.29,39.25-77.56,13.32-12.88,28.79-21.54,48-21.44a40.78,40.78,0,0,1,9.37,1.28c7.49,1.83,12.82,6.14,14.58,14,17.43-9.68,31.53-4.62,38.8,14,6.7,17.09,4.5,34.43.46,51.62a183.13,183.13,0,0,1-6.72,21.4c-1.33,3.6-.61,5.09,3,6.08,10.32,2.83,25-6.29,27.28-16.6,8.33-37.22,27.54-67.18,59.91-88,13.23-8.52,27.77-11.51,43.47-9.29,25.43,3.59,38,20.17,35.39,45.8s-16.77,42.4-39,52.74c-11.83,5.5-24.63,9-37.13,12.89-3.45,1.09-5.36,2.17-4.52,6a16.25,16.25,0,0,1,.07,2.49c.85,14.81,8.2,21.45,23,20.48,13.91-.91,26.71-5.6,38.67-12.45a234.42,234.42,0,0,0,20-13.22,56.26,56.26,0,0,0,20-25.71c12.42-30.72,32.72-55.29,63.11-70,7.31-3.53,15.79-5.08,23.92-6.29,5.18-.77,10.7.75,16.67,1.3.62-5.11,1.6-11,2-16.91.27-4.55,2.87-6.43,6.69-7.44,9.45-2.5,18.76-1,27.3,2.84A70.54,70.54,0,0,1,799,97.15c7.33,6.71,10.17,15.86,7.2,25.61-4.16,13.66-9.18,27.06-13.7,40.61-5.8,17.35-11.61,34.7-17.1,52.16A62.32,62.32,0,0,0,773,229.79c-.4,5.74,2,7.69,7.66,6.3a40.48,40.48,0,0,0,10.11-4.1c14.2-8,26.23-18.81,37.59-30.36,1.06-1.07,1.41-3.2,1.45-4.85.15-6.31-.15-12.64,0-18.95a67.88,67.88,0,0,1,53.85-64.27,52.65,52.65,0,0,1,26.65,1.37c10.81,3.41,15,11.22,11.88,22.15-3.55,12.28-11.56,21.63-20.74,30a10.93,10.93,0,0,0-3.74,8.16c-1.24,18.89,1.47,37.42,4.44,57.08,13.14-13.33,27-24.69,35.31-40.84,6.88-13.36,5.06-27.15,1.2-40.9a83.39,83.39,0,0,0-4-12.33c-1.67-3.64-.68-6.3,1.39-9.16,10-13.89,34.31-15.26,47.75-2.32,12,11.53,14.2,26.3,12.42,42C994.7,182.89,988,195,980.1,206.47c-17.78,25.92-41,46.29-66.45,64.29-3.63,2.57-4.74,5.25-4.86,9.39-.57,18.66-1.25,37.38-7.22,55.28-8.56,25.69-25,43.68-52.41,48.8-19.58,3.66-38.37,1-53.95-12.85-18-16-19.17-46.38-2.66-62.89,8.38-8.38,18.22-10.34,29.41-6.57,2.53.85,3.08,2.22,3.36,4.68.81,7.1,1.72,14.21,3.22,21.18A33.54,33.54,0,0,0,833,338.31c4,6.34,11.27,5.85,13.79-1.23A40.79,40.79,0,0,0,849.05,321c-1-13.6-2.48-27.19-4.49-40.68-2.2-14.81-5.19-29.51-7.87-44.25A15.86,15.86,0,0,0,835.71,233.62Zm-428-105.26c-3.17,2.22-6.54,4.21-9.47,6.71-15.89,13.57-25.14,31.17-30.27,51.11-3.32,12.88-4.67,25.94-.68,38.92,3.79,12.3,14.25,15.62,24.6,8,7.92-5.86,12.33-14.27,15.67-23.26.5-1.35-.23-3.19-.5-4.78-1.6-9.15-3.88-18.24-4.72-27.46A128.07,128.07,0,0,1,407.66,128.36ZM175.82,297.07a406.24,406.24,0,0,1-99-6.84C85,308.06,96,322.18,114,329.5,139.22,339.81,164.95,329.55,175.82,297.07ZM740.46,134.45c-4.31,3-7.59,4.88-10.48,7.27-16.59,13.65-27.8,30.94-32.88,51.74-1.89,7.75-1.81,16.05-2,24.12-.09,3.67,2.33,6.51,6.19,7.59,8.4,2.35,19.75-4.44,21.67-13q7.11-31.65,14.21-63.29C738.14,144.56,739.13,140.24,740.46,134.45Zm-199,41.35c5.74-2,10.45-3.14,14.75-5.18,10.94-5.17,16.52-16.33,13.75-28.15-.7-3-3.23-6.72-5.83-7.7-2.2-.83-6.58,1-8.5,3.1C546.1,148.08,543.2,161,541.43,175.79Z" transform="translate(-3.8 -3.84)"/>
		<path class="svg-logo" d="M498.27,294.57C585,297.15,665.74,307.07,743.93,333a51.81,51.81,0,0,1,10.11,4.2,16.73,16.73,0,0,1,7.58,19.88,16.3,16.3,0,0,1-18,11.22c-6.88-1-13.62-3-20.4-4.73C677.5,352.28,631.05,345.31,584,344c-46.77-1.35-93.6-2.17-140.37-1.34a1147.69,1147.69,0,0,0-174.9,16.7,31.85,31.85,0,0,1-13.72-.57c-6.8-1.94-10.8-8.85-10.59-15.91A16.89,16.89,0,0,1,256.85,327c8-2.37,16.11-4.17,24.26-5.86A1212.09,1212.09,0,0,1,432.27,299C455.83,297.15,479.44,295.82,498.27,294.57Z" transform="translate(-3.8 -3.84)"/>
	</g>
</svg>